<?xml version="1.0" standalone="no"?>
<!DOCTYPE svg PUBLIC "-//W3C//DTD SVG 20010904//EN"
 "http://www.w3.org/TR/2001/REC-SVG-20010904/DTD/svg10.dtd">
<svg version="1.0" xmlns="http://www.w3.org/2000/svg"
 width="30.000000pt" height="30.000000pt" viewBox="0 0 30.000000 30.000000"
 preserveAspectRatio="xMidYMid meet">

<g transform="translate(0.000000,30.000000) scale(0.100000,-0.100000)"
fill="#000000" stroke="none">
<path d="M95 245 c-14 -13 -25 -29 -25 -35 0 -16 47 -12 54 5 7 20 45 19 53
-1 4 -10 -6 -26 -26 -44 -38 -35 -41 -60 -6 -60 14 0 25 5 25 11 0 6 14 24 30
39 17 15 30 35 30 44 0 28 -46 66 -80 66 -19 0 -40 -9 -55 -25z"/>
<path d="M124 65 c-4 -9 -2 -21 4 -27 15 -15 44 -1 40 19 -4 23 -36 29 -44 8z"/>
</g>
</svg>
